<svg height="300pt" preserveAspectRatio="xMidYMid meet" viewBox="0 0 400 300" width="400pt" xmlns="http://www.w3.org/2000/svg"><g transform="matrix(.1 0 0 -.1 0 300)"><path d="m1567 2430c-106-27-167-97-167-190 0-108 54-156 234-206 113-31 146-56 146-109 0-43-26-71-75-81-76-14-146 14-173 69-12 25-17 27-83 27-59 0-69-2-69-17 1-28 35-96 61-120 89-82 286-94 399-25 64 39 92 97 88 179-6 105-60 151-236 202-118 34-142 50-142 97 0 50 40 77 107 72 56-5 89-26 104-65 8-21 15-23 79-23 60 0 70 2 70 18-1 26-34 95-56 114-57 51-201 79-287 58z"/><path d="m350 2085v-345h75 75v345 345h-75-75z"/><path d="m670 2085v-345h71 72l-5 266-6 267 61-114c33-63 97-181 142-264l82-150 87-3 86-3v346 345h-66-65l3-253 3-253-140 253-139 253h-93-93z"/><path d="m2223 2414c-3-9-56-165-118-345l-112-329h72 71l25 78 25 77 130 3 129 3 29-81 28-80h74c41 0 74 3 74 8 0 4-54 158-119 342l-119 335-91 3c-78 2-92 0-98-14zm187-386c0-5-43-8-96-8-87 0-96 2-90 17 9 23 86 272 87 281 1 8 99-279 99-290z"/><path d="m2740 2085v-345h71 72l-5 266-6 267 61-114c33-63 97-181 142-264l82-150 87-3 86-3v346 345h-66-65l3-253 3-253-140 253-139 253h-93-93z"/><path d="m3500 2085v-345h75 75v345 345h-75-75z"/><path d="m443 1560c-29-12-53-60-53-105 0-31-3-35-25-35-21 0-25-5-25-29 0-23 5-30 23-33 21-3 22-6 25-140l3-138h44 45v140 140h30c27 0 30 3 30 30s-3 30-30 30c-26 0-30 4-30 28 0 32 16 52 42 52 14 0 18 8 18 35 0 34-1 35-37 34-21 0-48-4-60-9z"/><path d="m1980 1480v-81l-30 16c-39 20-88 19-130-3-96-50-110-244-22-312 35-28 120-28 156 1l26 20v-20c0-18 6-21 45-21h45v240 240h-45-45zm-34-128c33-22 46-115 23-166-25-53-107-50-129 5-19 45-8 129 20 151 23 18 66 24 86 10z"/><path d="m2760 1525c0-34 1-35 40-35s40 1 40 35-1 35-40 35-40-1-40-35z"/><path d="m2538 1468c-3-39-6-43-30-46-23-3-28-8-28-32s5-29 28-32l27-3 5-123c6-143 11-152 92-152 46 0 48 1 48 29 0 22-6 30-25 35-31 8-37 30-33 131l3 80 33 3c28 3 32 7 32 32s-4 29-32 32c-31 3-33 6-36 46-3 42-3 42-42 42s-39 0-42-42z"/><path d="m670 1419c-65-27-100-85-100-166 0-111 57-173 159-173 74 0 119 24 149 81 20 37 23 54 19 108-5 67-22 99-70 135-30 22-119 31-157 15zm110-77c16-13 24-32 27-68 6-59-8-97-42-120-21-14-30-14-54-5-36 15-51 48-51 110 0 86 63 129 120 83z"/><path d="m1492 1410c-39-24-42-24-42-5 0 11-11 15-40 15h-40v-170-170h45 45v120c0 107 2 122 20 140 25 25 62 26 83 2 14-15 17-41 17-140v-122h45 45v133c0 114-3 136-20 165-33 54-99 68-158 32z"/><path d="m2235 1423c-35-9-63-34-74-64-10-29-10-29 30-29 26 0 46 7 59 20 24 24 63 26 84 4 9-8 16-26 16-40 0-22-3-24-54-24-105 0-156-36-156-111 0-40 4-51 31-73 24-21 41-26 83-26 30 0 61 6 74 16 20 14 22 14 22 0 0-12 11-16 46-16h46l-4 138c-2 86-9 146-17 160-23 42-112 63-186 45zm112-220c-4-21-14-44-24-50-26-20-70-16-87 8-29 42 5 79 72 79h45z"/><path d="m3020 1419c-65-27-100-85-100-166 0-111 57-173 159-173 74 0 119 24 149 81 20 37 23 54 19 108-5 67-22 99-70 135-30 22-119 31-157 15zm110-77c16-13 24-32 27-68 6-59-8-97-42-120-21-14-30-14-54-5-36 15-51 48-51 110 0 86 63 129 120 83z"/><path d="m3452 1410c-39-24-42-24-42-5 0 11-11 15-40 15h-40v-170-170h45 45v120c0 107 2 122 20 140 25 25 62 26 83 2 14-15 17-41 17-140v-122h45 45v133c0 114-3 136-20 165-33 54-99 68-158 32z"/><path d="m970 1313c1-187 24-233 117-233 40 0 58 5 73 20 11 11 22 20 25 20s5-9 5-20c0-17 7-20 40-20h40v170 170h-40-40v-82c-1-99-13-167-31-179-8-5-27-8-44-7-44 4-55 35-55 161v107h-45-45z"/><path d="m2760 1250v-170h40 40v170 170h-40-40z"/></g></svg>